<?xml version="1.0" encoding="UTF-8" standalone="no"?>
<svg
   version="1.1"
   width="297.0022mm"
   height="210.0072mm"
   viewBox="0.0000 0.0000 297.0022 210.0072"
   id="svg139"
   sodipodi:docname="apiaster-no-thumbs.svg"
   inkscape:version="1.4 (e7c3feb100, 2024-10-09)"
   xmlns:inkscape="http://www.inkscape.org/namespaces/inkscape"
   xmlns:sodipodi="http://sodipodi.sourceforge.net/DTD/sodipodi-0.dtd"
   xmlns="http://www.w3.org/2000/svg"
   xmlns:svg="http://www.w3.org/2000/svg">
  <defs
     id="defs139" />
  <sodipodi:namedview
     id="namedview139"
     pagecolor="#505050"
     bordercolor="#eeeeee"
     borderopacity="1"
     inkscape:showpageshadow="0"
     inkscape:pageopacity="0"
     inkscape:pagecheckerboard="0"
     inkscape:deskcolor="#505050"
     inkscape:document-units="mm"
     inkscape:zoom="4.024362"
     inkscape:cx="679.36234"
     inkscape:cy="435.34851"
     inkscape:window-width="1904"
     inkscape:window-height="1035"
     inkscape:window-x="0"
     inkscape:window-y="0"
     inkscape:window-maximized="0"
     inkscape:current-layer="svg139" />
  <title
     id="title1">SVG Image created as apiaster-User_8.svg date 2025/01/23 16:22:30 </title>
  <desc
     id="desc1">Image generated by PCBNEW </desc>
  <g
     style="fill:none;  stroke:#D8C852; stroke-width:0.0500; stroke-opacity:1;  stroke-linecap:round; stroke-linejoin:round;"
     id="g44">
    <path
       d="M56.9900 74.9650 L56.9900 122.5900 "
       id="path1" />
    <path
       d="M57.9900 73.9650 L61.0400 73.9650 "
       id="path2" />
    <path
       d="M62.0400 43.1896 L62.0400 72.9650 "
       id="path3" />
    <path
       d="M75.0400 123.5900 L57.9900 123.5900 "
       id="path4" />
    <path
       d="M76.0400 124.5900 L76.0400 130.9900 "
       id="path5" />
    <path
       d="M83.0400 42.1900 L63.0400 42.1896 "
       id="path6" />
    <path
       d="M84.0400 40.3900 L84.0400 41.1900 "
       id="path7" />
    <path
       d="M102.0900 39.3900 L85.0400 39.3900 "
       id="path8" />
    <path
       d="M103.6600 131.9900 L77.0400 131.9900 "
       id="path9" />
    <path
       d="M133.4800 139.6456 L111.3156 139.6456 "
       id="path10" />
    <path
       d="M142.1900 37.3900 L104.0900 37.3900 "
       id="path13" />
    <path
       d="M143.1900 42.3900 L143.1900 38.3900 "
       id="path14" />
    <path
       d="M177.0900 74.9650 L177.0900 94.0000 "
       id="path15" />
    <path
       d="M180.2900 43.3900 L144.1900 43.3900 "
       id="path16" />
    <path
       d="M180.2900 73.9650 L178.0900 73.9650 "
       id="path17" />
    <path
       d="M181.2900 72.9650 L181.2900 44.3900 "
       id="path18" />
    <path
       d="M194.0644 99.5884 L177.5906 94.8664 "
       id="path20" />
    <path
       d="M194.8186 100.9490 L189.2326 120.9268 "
       id="path21" />
    <path
       d="M57.9900 73.9650 A1.0000 1.0000 0.0 0 0 56.9900 74.9650"
       id="path23" />
    <path
       d="M56.9900 122.5900 A1.0000 1.0000 0.0 0 0 57.9900 123.5900"
       id="path24" />
    <path
       d="M63.0400 42.1896 A1.0000 1.0000 0.0 0 0 62.0400 43.1896"
       id="path25" />
    <path
       d="M61.0400 73.9650 A1.0000 1.0000 0.0 0 0 62.0400 72.9650"
       id="path26" />
    <path
       d="M76.0400 124.5900 A1.0000 1.0000 0.0 0 0 75.0400 123.5900"
       id="path27" />
    <path
       d="M76.0400 130.9900 A1.0000 1.0000 0.0 0 0 77.0400 131.9900"
       id="path28" />
    <path
       d="M83.0400 42.1900 A1.0000 1.0000 0.0 0 0 84.0400 41.1900"
       id="path29" />
    <path
       d="M85.0400 39.3900 A1.0000 1.0000 0.0 0 0 84.0400 40.3900"
       id="path30" />
    <path
       d="M102.0900 39.3900 A1.0000 1.0000 0.0 0 0 103.0900 38.3900"
       id="path31" />
    <path
       d="M104.0900 37.3900 A1.0000 1.0000 0.0 0 0 103.0900 38.3900"
       id="path32" />
    <path
       d="M104.6600 132.9900 A1.0000 1.0000 0.0 0 0 103.6600 131.9900"
       id="path33" />
    <path
       d="M104.6600 132.9900 A6.6556 6.6556 0.0 0 0 111.3156 139.6456"
       id="path34" />
    <path
       d="M143.1900 38.3900 A1.0000 1.0000 0.0 0 0 142.1900 37.3900"
       id="path35" />
    <path
       d="M143.1900 42.3900 A1.0000 1.0000 0.0 0 0 144.1900 43.3900"
       id="path36" />
    <path
       d="M178.0900 73.9650 A1.0000 1.0000 0.0 0 0 177.0900 74.9650"
       id="path37" />
    <path
       d="M177.0900 94.0000 A1.0000 1.0000 0.0 0 0 177.5906 94.8664"
       id="path38" />
    <path
       d="M181.2900 44.3900 A1.0000 1.0000 0.0 0 0 180.2900 43.3900"
       id="path39" />
    <path
       d="M180.2900 73.9650 A1.0000 1.0000 0.0 0 0 181.2900 72.9650"
       id="path40" />
    <path
       d="M194.8186 100.9490 A1.1001 1.1001 0.0 0 0 194.0644 99.5884"
       id="path43" />
  </g>
</svg>
